<?xml version="1.0" encoding="UTF-8"?>
<svg id="Ebene_1" xmlns="http://www.w3.org/2000/svg" viewBox="0 0 2000.34 1484.444">
  <defs>
    <style>
      .cls-1 {
        fill: #313131;
      }

      .cls-2 {
        fill: #292929;
      }

      .cls-3 {
        fill: #353535;
      }

      .cls-4 {
        fill: #272727;
      }

      .cls-5 {
        fill: #2a2a2a;
      }

      .cls-6 {
        fill: #2c2c2c;
      }
    </style>
  </defs>
  <path class="cls-1" d="M345.574,958.372c.993-46.934,2.114-93.865,2.868-140.803.149-9.249,3.801-20.058-7.961-25.837,4.314-23.425-7.501-45.128-7.236-68.014.09-7.733,11.137-18.305-3.911-21.158-11.829-2.243-16.438,8.807-19.113,18.556-5.764,21.01-.113,40.559,8.694,59.55-19.698-11.018-25.268-31.662-34.117-50.072-7.575-15.76,10.631-18.257,14.315-28.138,1.162-3.117.557-7.041.221-10.543-1.838-19.153,5.565-26.803,23.083-16.167,15.481,9.4,24.103,3.736,33.387-8.924,23.652-32.253,14.861-58.891-23.685-69.16-5.037-1.342-11.56-.605-13.321-6.956-1.551-5.598,3.612-6.818,7.557-8.999,27.852-15.4,28.461-71.349,1.096-88.411-24.469-15.257-38.413-8.212-51.686,26.453-8.295-6.253-6.413-15.47-3.502-21.751,13.526-29.192,7.811-59.921,8.818-90.073.596-17.841-2.492-36.556,19.797-45.059,5.117-1.952,7.215-7.968,5.253-13.812-1.387-4.132-4.823-5.024-8.468-2.971-26.311,14.825-20.494-6.562-21.488-19.354-.826-10.628-.485-21.346-.661-32.025,26.138-24.939,57.83-42.201,87.084-62.819,58.652-41.337,119.037-79.698,183.218-112.256,73.845-37.461,151.462-65.494,228.506-94.949,21.098-8.066,46.568-3.253,64.516-22.089,4.713-4.946,11.983-1.717,17.876.654,49.27,19.821,101.155,20.189,153.183,23.954,49.512,3.583,94.736-9.549,140.909-21.504,8.117-2.102,15.24-2.752,23.406.463,132.965,52.343,260.894,115.06,381.221,192.027,144.256,92.273,286.537,187.629,430.146,280.923,16.936,11.003,18.763,20.662,8.204,36.817-63.876,97.727-117.505,201.615-179.569,300.4-41.652,66.297-35.953,50.723-87.997,23.1-14.264-7.571-28.443-15.333-42.97-22.368-14.36-6.955-23.805-5.55-23.99,14.007-.879,93.293-6.192,186.516-2.685,279.885,4.246,113.001,7.671,226.036,10.857,339.073.953,33.831-.562,35.278-34.548,34.19-190.297-6.088-380.678-5.861-570.932-1.888-116.672,2.436-233.317.561-349.884.418-113.938-.14-228.005.977-341.986-1.993-19.835-.517-31.98-4.226-30.729-28.672,6.564-128.293.051-256.743,3.559-385.093.219-8.015,1.361-16.004,2.074-24.005,0,39.363,0,78.725,0,118.087,6.252-56.305,6.285-112.552,6.226-168.8-.012-11.581,1.077-23.403-5.637-33.895ZM1558.458,492.389c-10.823,21.883-.865,43.566.458,64.842,3.166,50.897,18.929,99.673,51.602,138.35,24.556,29.069,43.535,58.299,51.115,95.383,3.352,16.401,14.075,18.078,32.026,9.757-18.62-8.582-21.498-22.584-24.645-37.821-5.767-27.929-15.909-52.837-36.38-75.791-23.486-26.336-41.774-58.226-50.539-94.275-8.106-33.34-17.571-66.349-23.637-100.444ZM425.293,551.292c-15.327,7.524-13.738,19.159-14.882,29.402-3.691,33.067-15.397,62.226-40.46,85.106-4.977,4.544-14.894,9.437-8.441,16.463,7.381,8.036,14.115-1.653,19.987-6.462,38.927-31.876,50.557-73.505,43.795-124.508Z"/>
  <path class="cls-3" d="M275.516,294.705c.176,10.678-.165,21.397.661,32.025.994,12.792-4.822,34.178,21.488,19.354,3.644-2.053,7.081-1.161,8.468,2.971,1.961,5.845-.136,11.86-5.253,13.812-22.289,8.503-19.202,27.217-19.797,45.059-1.007,30.152,4.708,60.881-8.818,90.073-2.91,6.281-4.793,15.497,3.502,21.751,13.272-34.665,27.216-41.71,51.686-26.453,27.365,17.062,26.756,73.011-1.096,88.411-3.945,2.181-9.108,3.401-7.557,8.999,1.76,6.351,8.284,5.614,13.321,6.956,38.547,10.269,47.337,36.908,23.685,69.16-9.284,12.659-17.905,18.323-33.387,8.924-17.517-10.636-24.92-2.986-23.083,16.167.336,3.503.941,7.426-.221,10.543-3.684,9.881-21.891,12.378-14.315,28.138,8.849,18.41,14.419,39.054,34.117,50.072,3.359,5.128-3.23,14.206,6.648,16.745-30.213,17.609-60.6,34.928-90.549,52.974-11.581,6.978-18.565,5.321-26.664-5.995-34.977-48.869-63.621-101.565-94.61-152.859-34.803-57.609-69.393-115.427-106.748-171.371-14.091-21.104-4.875-30.786,9.845-41.378,48.806-35.119,97.894-69.845,146.865-104.736,37.22-26.519,72.184-56.216,111.812-79.341Z"/>
  <path class="cls-6" d="M325.564,797.411c-9.878-2.54-3.289-11.617-6.648-16.745-8.807-18.992-14.458-38.54-8.694-59.55,2.675-9.749,7.283-20.799,19.113-18.556,15.048,2.853,4.001,13.425,3.911,21.158-.265,22.886,11.55,44.59,7.236,68.014-4.973,1.893-9.945,3.786-14.918,5.68Z"/>
  <path class="cls-4" d="M345.574,958.372c6.714,10.492,5.625,22.314,5.637,33.895.059,56.248.026,112.495-6.226,168.8,0-39.362,0-78.724,0-118.087-2.333-28.221-1.49-56.419.589-84.608Z"/>
  <path class="cls-2" d="M1558.458,492.389c6.066,34.095,15.531,67.104,23.637,100.444,8.765,36.049,27.052,67.939,50.539,94.275,20.471,22.954,30.613,47.862,36.38,75.791,3.146,15.238,6.024,29.239,24.645,37.821-17.951,8.322-28.674,6.645-32.026-9.757-7.58-37.084-26.559-66.314-51.115-95.383-32.673-38.678-48.436-87.454-51.602-138.35-1.323-21.276-11.281-42.96-.458-64.842Z"/>
  <path class="cls-5" d="M425.293,551.292c6.762,51.004-4.868,92.632-43.795,124.508-5.872,4.808-12.605,14.497-19.987,6.462-6.454-7.026,3.463-11.919,8.441-16.463,25.063-22.88,36.769-52.038,40.46-85.106,1.143-10.243-.445-21.877,14.882-29.402Z"/>
</svg>