<?xml version="1.0" encoding="UTF-8"?>
<svg id="Ebene_1" xmlns="http://www.w3.org/2000/svg" viewBox="0 0 1400 763.64">
  <defs>
    <style>
      .cls-1 {
        fill: #fff;
      }
    </style>
  </defs>
  <g>
    <path class="cls-1" d="M0,376.07c3.56-83.3,50.66-157.84,114.31-209.4,45.41-33.29,95.05-59.53,144.8-85.59-11.51,29.41-21.03,59.41-30.32,89.58-41.73,12.33-83.7,23.95-125.19,37.09-9.02,14.1-16.32,29.21-23.39,44.35,47.18-5.52,95.07-10.06,141.64-19.57-2.25,17.21-4,34.5-5.05,51.82-37.26,9.42-78.14,7.86-116.25,7.31-11.55-.13-23.1-.22-34.65-.25-8.7,31.12-14.75,62.79-14.9,95.21-16.95-3.74-33.95-7.28-51-10.55Z"/>
    <path class="cls-1" d="M470.15,21.44c16.31,136.19,58.41,273.31,114.75,398.13-14.61,11.65-29.15,23.39-43.71,35.11-16.43-33.17-29.92-67.72-42.96-102.32-48.97,9.76-99.85,11.21-149.64,12.19-11.36,30.93-22.02,62.08-32.51,93.32-21.84-14.86-43.4-30.13-65.08-45.23,50.85-123.36,99.25-248.53,142.73-374.69,25.34-6.27,50.76-11.74,76.42-16.5ZM368.3,306.61c36.71-2.89,73.38-6.83,109.84-11.98-18.68-58.9-36.36-118.25-49-178.79-19.43,63.86-39.72,127.44-60.83,190.77Z"/>
    <path class="cls-1" d="M624.67,430.84c4.39-83.13,4.87-166.54,6.36-249.73.68-37.75,1.14-75.55,1.27-113.31.08-22.37-.28-44.76-.14-67.14,26.65-.78,53.53-1.3,79.66.99,33.56,2.94,65.93,13.72,92.72,33.13,42.75,30.97,58.03,86.72,60.27,139.3.05,2.17.07,3.25.11,5.42,0,124.53-69.29,225.8-196.13,245.64-14.69,2.05-29.39,3.95-44.12,5.7ZM685.25,76.68c.88,72.43-.61,145.61,4.57,217.88,9.96-1.13,20.55-1.7,22.9-1.98,67.11-8.07,105.21-64.44,103.8-129.83-1.64-76.3-69.2-89.25-131.28-86.07Z"/>
    <path class="cls-1" d="M1144.58,330.31c-77.19,4.68-151.94,13.54-226.42,35.05,1.98-20.36,4-40.74,5.14-61.14,1.81-32.18,2.28-64.65,1.26-96.66-.73-22.99-2.31-46.44-4.22-69.35-3.33-39.92-8.43-80.39-16.61-119.97,63.29,9.15,125.43,21.69,187.08,38.69,9.91,24.41,18.39,48.66,24.14,74.4-46.24-7.53-93.03-13.08-139.92-13.88.84,19.63,2.21,39.25,3.13,58.88,51.86-.03,102.83,4.55,154.4,9.13,2.74,14.51,5.04,28.99,6.95,43.63-40.28,2.67-81.26-1.88-121.62-1.77-13.08.02-26.16.4-39.22,1.17-.27,24.17-.83,48.48-3.63,72.52,57.05-8.82,114.84-10.72,172.48-10.42-.5,13.27-1.5,26.52-2.97,39.71Z"/>
    <path class="cls-1" d="M1189.45,349.59c12.52-52.21,11.55-107.19.63-158.57-5.02-23.63-12.56-47.25-22.19-69.83-5.94-13.92-12.91-27.45-20.23-40.7,19.65,8.77,39.15,18.02,57.75,28.41,26.13,14.58,51,32.46,75,50.56,37.25,28.09,76.63,60.22,101.86,100.33.8,1.28,1.2,1.93,1.98,3.22,60.09,100.98-92.61,97.82-151.87,91.58-14.29-1.82-28.6-3.5-42.93-4.99ZM1212.14,143.29c21.43,42.6,32.75,87.16,41.51,133.74,8.88,1.82,18.3,4.23,20.37,4.67,33.49,6.99,95.47,2.9,65.73-47.12-26.26-44.15-80.29-73.52-127.61-91.3Z"/>
  </g>
  <g>
    <path class="cls-1" d="M65.36,410.87c-2.45,58.08,15.22,137.77,48.55,166.01,32.84,27.82,104.62,46.27,158.43,65.8,8.28,21.79,16.63,43.39,26.84,64.37-64.94-27.57-128.42-59.34-185.06-101.78C50.12,553.37,3.12,478.54,1.89,394.46c21.24,5.17,42.37,10.7,63.47,16.41Z"/>
    <path class="cls-1" d="M324.84,603.25c-10.95-95.68,95.8-129.84,172.33-132.03,42.61-1.22,89.69,4,122.56,33.96,32.32,29.46,41.99,74.93,41.83,117-.17,42.5-10.39,89.43-45.27,117.25-31.67,25.26-74.69,27.5-113.15,21.28-80.56-13.03-168.28-69.99-178.3-157.46ZM554.09,635.64c-.88-46.96-17.52-86.9-69.81-88.13-49.98-1.18-74.5,29.5-71.16,78.18,3.27,47.58,27.47,84.99,77.4,91.02,54.54,6.58,64.45-34.04,63.57-81.07Z"/>
    <path class="cls-1" d="M843.05,759.75c-12.33-50.85-39.39-100.26-61.99-147.04-22.99-47.58-45.25-97.4-73.48-142.19,27.65-14.98,54.59-30.73,80.6-48.42,22.38,34.72,39.55,73.48,57.35,110.66,22.49,46.98,44.24,94.58,61.89,143.62,44.71-95.95,84.45-193.97,120.73-293.39,2.6-7.21,3.88-10.8,6.39-17.97,19.05,7.22,37.86,15.07,56.55,23.16-27.43,56.22-46.63,117.4-70.47,175.21-24.9,60.37-52.87,119.67-76.58,180.51-33.5,6.48-67.12,11.75-100.99,15.86Z"/>
    <path class="cls-1" d="M1306.13,598c-63.2,42-128.48,78.56-199.63,105.37,5.04-16.96,10-33.98,14.01-51.22,6.63-28.52,11.62-57.61,14.63-86.41,2.29-21.89,3.43-44.56,3.93-66.54.95-41.48-1.14-83.97-7.83-125.48,45.63,1.51,91.12,5.04,136.6,8.97,43.83,3.79,89.13,4.26,132.16,13.81-1.55,23.16-5.04,44.4-12.87,66.27-59.06-1.13-119.39,5.94-178.37,10.36-2.84,19.14-5.19,38.34-8.18,57.46,59.27-6.81,117.72-19.08,176.96-25.77-5.42,10.83-11.07,20.91-17.45,31.21-42.15,12.97-84.68,25.22-127.86,34.27-13.89,2.91-27.8,5.69-41.73,8.38-5.23,21.3-11.02,42.49-18.81,63.02,55.37-18.37,107.85-42.7,160.54-67.55-8.53,8.23-17.15,16.09-26.1,23.86Z"/>
  </g>
</svg>