<?xml version="1.0" encoding="iso-8859-1"?>
<svg version="1.1" baseProfile="basic" id="Layer_1"
	 xmlns="http://www.w3.org/2000/svg" xmlns:xlink="http://www.w3.org/1999/xlink" x="0px" y="0px" viewBox="0 0 50 50"
	 xml:space="preserve">
<defs>
    <style>
      .cls-1 {
        fill: #fff;
      }
    </style>
</defs>
<path class="cls-1" d="M35.879,24.431c0,8.226-7.709,8.139-7.709,8.139s0.983,1.101,0.983,2.654c0,0.905,0.027,3.369,0,4.426
	c-0.024,0.96,1.123,1.498,1.123,1.498S27.602,41.42,25,41.42s-5.276-0.273-5.276-0.273s1.147-0.538,1.123-1.498
	c-0.027-1.056,0-3.521,0-4.426c0-1.553,0.983-2.654,0.983-2.654s-7.709,0.087-7.709-8.139c0-3.174,1.659-4.825,1.659-4.825
	s-0.871-3.388,0.302-4.825c1.315-0.142,3.669,1.257,4.675,1.91c0,0,1.593-0.653,4.244-0.653c2.651,0,4.244,0.653,4.244,0.653
	c1.005-0.653,3.36-2.052,4.675-1.91c1.173,1.437,0.302,4.825,0.302,4.825S35.879,21.257,35.879,24.431z"/>
<path class="cls-1" d="M21.692,37.082c0,0-2.102,0.318-2.853,0.318c-4.023,0-4.002-2.909-5.132-4.202c-0.536-0.613-1.347-0.844-1.347-1.175
	c0-0.331,0.283-0.62,0.862-0.62c0.879,0,1.821,0.623,2.281,1.365c0.466,0.752,1.739,2.379,3.412,2.379
	c1.075,0,2.586-0.637,2.586-0.637L21.692,37.082z"/>
<path class="cls-1" id="circle_8_" d="M25,8c9.389,0,17,7.611,17,17s-7.611,17-17,17S8,34.389,8,25S15.611,8,25,8z M25,41c8.837,0,16-7.163,16-16
	S33.837,9,25,9S9,16.163,9,25S16.163,41,25,41z"/>
</svg>